<svg width="36" height="25" viewBox="0 0 36 25" fill="none" xmlns="http://www.w3.org/2000/svg">
<path d="M14.3753 19.9549L4.06388 9.64347C3.13626 8.71585 1.62334 8.71585 0.695719 9.64347C-0.231906 10.5711 -0.231906 12.084 0.695719 13.0116L11.0072 23.3231C11.9403 24.2562 13.4477 24.2507 14.3753 23.3231C15.303 22.3955 15.303 20.8826 14.3753 19.9549Z" fill="black"/>
<path d="M15.1161 23.3231L34.3754 4.06388C35.303 3.13626 35.303 1.62334 34.3754 0.695719C33.4478 -0.231906 31.9349 -0.231906 31.0072 0.695719L11.748 19.955C10.8148 20.8881 10.8204 22.3955 11.748 23.3231C12.6756 24.2508 14.1885 24.2508 15.1161 23.3231Z" fill="black"/>
</svg>
